<svg xmlns="http://www.w3.org/2000/svg" version="1.1" xmlns:xlink="http://www.w3.org/1999/xlink" width="24" height="24" x="0" y="0" viewBox="0 0 800 800" style="enable-background:new 0 0 24 24" xml:space="preserve" class=""><g><path fill="#ffffff" d="M466.7 758.5H333.3c-64.8 0-111.7 0-149.6-5.1-43.5-5.8-73-18.6-95.7-41.3s-35.4-52.2-41.3-95.7c-5.1-38-5.1-84.8-5.1-149.6v-235c0-30.9 0-46.5 2.7-61 5.9-31.4 21-60 43.6-82.6s51.2-37.7 82.6-43.6c16.1-3 66-4.2 88.9-2.1 31.8 3 61.7 15.3 86.3 35.7 10.3 8.6 26.8 25.8 38.5 37.6 25.5 25.5 38.3 38.3 51.5 45.7 32.7 18.2 56.9 13.7 104.2 13.7 45.5 0 78.3 0 105.4 3.4 31.8 4 53.9 12.8 71.5 28.7 20.1 18 31.4 38.2 36.8 65.3 6.3 31.8 4 78.9 4.7 120.7V466.9c0 64.8 0 111.7-5.1 149.6-5.8 43.5-18.6 73-41.3 95.7s-52.2 35.4-95.7 41.3c-37.9 5-84.7 5-149.5 5zM179.9 93.8c-44.1 8.3-78 42.2-86.4 86.4-1.9 10-1.9 23.9-1.9 51.7v235c0 118.7 0 178.2 31.7 209.9s91.3 31.7 209.9 31.7h133.3c118.7 0 178.2 0 209.9-31.7s31.7-91.3 31.7-209.9v-73.3c-.6-73.5 6.1-121.3-24.8-149.1-21.4-19.2-62.2-19.2-143.4-19.2-55.9 0-88.8 2.1-128.5-20-19.3-10.8-33.8-25.2-62.6-54-10.2-10.2-26.7-27.5-35.1-34.4-16.8-14-37.3-22.4-59.1-24.5-6.5-.7-68.1.1-74.7 1.4z" opacity="1" data-original="#1c274c"></path><path fill="#b0b9dc" d="M377.8 525.2c-7.1 0-13.9-3.1-18.7-8.4l-44.4-50c-9.2-10.3-8.2-26.1 2.1-35.3s26.1-8.2 35.3 2.1l25.8 29 70.2-79c9.2-10.3 25-11.2 35.3-2.1 10.3 9.2 11.3 25 2.1 35.3l-88.9 100c-4.9 5.4-11.7 8.4-18.8 8.4z" opacity="1" data-original="#8e93a6" class=""></path></g></svg>