<svg xmlns="http://www.w3.org/2000/svg" version="1.1" xmlns:xlink="http://www.w3.org/1999/xlink" width="24" height="24" x="0" y="0" viewBox="0 0 1000 1000" style="enable-background:new 0 0 24 24" xml:space="preserve" class=""><g><path d="M679.51 815.39a99.16 99.16 0 0 1-81.68-43 4.45 4.45 0 0 0-3.65-2H405.82a4.46 4.46 0 0 0-3.65 2 99.12 99.12 0 0 1-168.3-8 14 14 0 0 1 12.23-20.82h55.46L327 716.29 301.56 689H246.1a14 14 0 0 1-12.23-20.82 99.11 99.11 0 0 1 168.3-8 4.46 4.46 0 0 0 3.65 2h188.36a4.45 4.45 0 0 0 3.65-2 99.12 99.12 0 0 1 168.31 8A14 14 0 0 1 753.9 689h-55.46L673 716.29l25.47 27.35h55.43a14 14 0 0 1 12.24 20.82 99.25 99.25 0 0 1-86.63 50.93Zm-152.28-72.95h66.95a32.45 32.45 0 0 1 26.72 14.11 71.1 71.1 0 0 0 103.23 15.09h-31.78a14 14 0 0 1-10.24-4.46l-38.52-41.34a14 14 0 0 1 0-19.09l38.52-41.35a14 14 0 0 1 10.24-4.4h31.78a71.08 71.08 0 0 0-103.23 15 32.45 32.45 0 0 1-26.72 14.11H405.82A32.45 32.45 0 0 1 379.1 676a71.07 71.07 0 0 0-103.22-15h31.77a14 14 0 0 1 10.25 4.45l38.51 41.35a14 14 0 0 1 0 19.09l-38.51 41.29a14 14 0 0 1-10.25 4.46h-31.77a71.08 71.08 0 0 0 103.22-15.1 32.47 32.47 0 0 1 26.72-14.1Z" fill="#ffffff" opacity="1" data-original="#000000" class=""></path><path d="M845.69 877.43H154.31A35.37 35.37 0 0 1 119 842.1V497a14 14 0 0 1 28 0v345.1a7.34 7.34 0 0 0 7.33 7.33h691.36a7.34 7.34 0 0 0 7.31-7.33V497a14 14 0 0 1 28 0v345.1a35.37 35.37 0 0 1-35.31 35.33Z" fill="#ffffff" opacity="1" data-original="#000000" class=""></path><path d="M903.67 511H96.33A35.37 35.37 0 0 1 61 475.63v-66.08a100.43 100.43 0 0 1 100.31-100.31h677.38A100.43 100.43 0 0 1 939 409.55v66.08A35.37 35.37 0 0 1 903.67 511ZM161.31 337.24A72.39 72.39 0 0 0 89 409.55v66.08a7.34 7.34 0 0 0 7.33 7.37h807.34a7.34 7.34 0 0 0 7.33-7.33v-66.12a72.39 72.39 0 0 0-72.31-72.31Z" fill="#ffffff" opacity="1" data-original="#000000" class=""></path><path d="M362.16 583.16H227.61a14 14 0 0 1-14-14V497a14 14 0 1 1 28 0v58.2h106.55V497a14 14 0 0 1 28 0v72.2a14 14 0 0 1-14 13.96ZM772.39 583.16H637.84a14 14 0 0 1-14-14V497a14 14 0 1 1 28 0v58.2h106.55V497a14 14 0 1 1 28 0v72.2a14 14 0 0 1-14 13.96ZM755.47 337.24h-64.26a14 14 0 0 1-14-14v-99.58a8.84 8.84 0 0 0-8.83-8.83H331.61a8.84 8.84 0 0 0-8.83 8.83v99.58a14 14 0 0 1-14 14h-64.26a14 14 0 0 1-14-14V219.92a97.46 97.46 0 0 1 97.34-97.35h344.27a97.45 97.45 0 0 1 97.34 97.35v103.32a14 14 0 0 1-14 14Zm-50.26-28h36.26v-89.32a69.42 69.42 0 0 0-69.34-69.35H327.86a69.43 69.43 0 0 0-69.34 69.35v89.32h36.26v-85.58a36.87 36.87 0 0 1 36.83-36.83h336.77a36.87 36.87 0 0 1 36.83 36.83Z" fill="#ffffff" opacity="1" data-original="#000000" class=""></path></g></svg>